REM DIRINDEX 1\3,1\4,1\5,1\6,1\2\7,1\2\8,1\2\9,1\2\10,1\2\11
REM DIRNAME folder01,folder02,folder03,folder04,folder05,folder06,folder07,folder08,folder09,folder10,folder11
TITLE ""
FILE "DISC5Track10.mp3" MP3
  TRACK 01 AUDIO
    TITLE "0:"
    INDEX 01 00:00:00
  TRACK 02 AUDIO
    TITLE "3:cjc021_5079"
    INDEX 01 00:00:23
  TRACK 03 AUDIO
    TITLE "0:"
    INDEX 01 00:01:42
  TRACK 04 AUDIO
    TITLE "4:cjc021_5080"
    INDEX 01 00:03:17
  TRACK 05 AUDIO
    TITLE "0:"
    INDEX 01 00:04:36
  TRACK 06 AUDIO
    TITLE "5:cjc021_5081"
    INDEX 01 00:04:74
  TRACK 07 AUDIO
    TITLE "0:"
    INDEX 01 00:07:58
  TRACK 08 AUDIO
    TITLE "3:cjc021_5082"
    INDEX 01 00:09:20
  TRACK 09 AUDIO
    TITLE "0:"
    INDEX 01 00:10:39
  TRACK 10 AUDIO
    TITLE "4:cjc021_5083"
    INDEX 01 00:12:18
  TRACK 11 AUDIO
    TITLE "0:"
    INDEX 01 00:13:37
  TRACK 12 AUDIO
    TITLE "5:cjc021_5084"
    INDEX 01 00:14:00
  TRACK 13 AUDIO
    TITLE "0:"
    INDEX 01 00:16:61
  TRACK 14 AUDIO
    TITLE "3:cjc021_5085"
    INDEX 01 00:18:29
  TRACK 15 AUDIO
    TITLE "0:"
    INDEX 01 00:19:36
  TRACK 16 AUDIO
    TITLE "4:cjc021_5086"
    INDEX 01 00:21:15
  TRACK 17 AUDIO
    TITLE "0:"
    INDEX 01 00:22:21
  TRACK 18 AUDIO
    TITLE "5:cjc021_5087"
    INDEX 01 00:22:58
  TRACK 19 AUDIO
    TITLE "0:"
    INDEX 01 00:24:67
  TRACK 20 AUDIO
    TITLE "3:cjc021_5088"
    INDEX 01 00:26:32
  TRACK 21 AUDIO
    TITLE "0:"
    INDEX 01 00:27:43
  TRACK 22 AUDIO
    TITLE "4:cjc021_5089"
    INDEX 01 00:29:19
  TRACK 23 AUDIO
    TITLE "0:"
    INDEX 01 00:30:30
  TRACK 24 AUDIO
    TITLE "5:cjc021_5090"
    INDEX 01 00:30:69
  TRACK 25 AUDIO
    TITLE "0:"
    INDEX 01 00:32:64
  TRACK 26 AUDIO
    TITLE "3:cjc021_5091"
    INDEX 01 00:34:32
  TRACK 27 AUDIO
    TITLE "0:"
    INDEX 01 00:35:59
  TRACK 28 AUDIO
    TITLE "4:cjc021_5092"
    INDEX 01 00:37:36
  TRACK 29 AUDIO
    TITLE "0:"
    INDEX 01 00:38:63
  TRACK 30 AUDIO
    TITLE "5:cjc021_5093"
    INDEX 01 00:39:25
  TRACK 31 AUDIO
    TITLE "0:"
    INDEX 01 00:42:68
  TRACK 32 AUDIO
    TITLE "3:cjc021_5094"
    INDEX 01 00:44:34
  TRACK 33 AUDIO
    TITLE "0:"
    INDEX 01 00:45:49
  TRACK 34 AUDIO
    TITLE "4:cjc021_5095"
    INDEX 01 00:47:25
  TRACK 35 AUDIO
    TITLE "0:"
    INDEX 01 00:48:40
  TRACK 36 AUDIO
    TITLE "5:cjc021_5096"
    INDEX 01 00:49:00
  TRACK 37 AUDIO
    TITLE "0:"
    INDEX 01 00:51:46
  TRACK 38 AUDIO
    TITLE "3:cjc021_5097"
    INDEX 01 00:53:09
  TRACK 39 AUDIO
    TITLE "0:"
    INDEX 01 00:54:25
  TRACK 40 AUDIO
    TITLE "4:cjc021_5098"
    INDEX 01 00:56:02
  TRACK 41 AUDIO
    TITLE "0:"
    INDEX 01 00:57:21
  TRACK 42 AUDIO
    TITLE "5:cjc021_5099"
    INDEX 01 00:57:58
  TRACK 43 AUDIO
    TITLE "0:"
    INDEX 01 01:00:66
  TRACK 44 AUDIO
    TITLE "3:cjc021_5100"
    INDEX 01 01:02:34
  TRACK 45 AUDIO
    TITLE "0:"
    INDEX 01 01:03:43
  TRACK 46 AUDIO
    TITLE "4:cjc021_5101"
    INDEX 01 01:05:21
  TRACK 47 AUDIO
    TITLE "0:"
    INDEX 01 01:06:30
  TRACK 48 AUDIO
    TITLE "5:cjc021_5102"
    INDEX 01 01:06:69
  TRACK 49 AUDIO
    TITLE "0:"
    INDEX 01 01:09:52
  TRACK 50 AUDIO
    TITLE "3:cjc021_5103"
    INDEX 01 01:11:17
  TRACK 51 AUDIO
    TITLE "0:"
    INDEX 01 01:12:44
  TRACK 52 AUDIO
    TITLE "4:cjc021_5104"
    INDEX 01 01:14:23
  TRACK 53 AUDIO
    TITLE "0:"
    INDEX 01 01:15:48
  TRACK 54 AUDIO
    TITLE "5:cjc021_5105"
    INDEX 01 01:16:14
  TRACK 55 AUDIO
    TITLE "0:"
    INDEX 01 01:18:74
  TRACK 56 AUDIO
    TITLE "3:cjc021_5106"
    INDEX 01 01:20:38
  TRACK 57 AUDIO
    TITLE "0:"
    INDEX 01 01:21:57
  TRACK 58 AUDIO
    TITLE "4:cjc021_5107"
    INDEX 01 01:23:30
  TRACK 59 AUDIO
    TITLE "0:"
    INDEX 01 01:24:49
  TRACK 60 AUDIO
    TITLE "5:cjc021_5108"
    INDEX 01 01:25:09
  TRACK 61 AUDIO
    TITLE "0:"
    INDEX 01 01:27:42
